<?xml version="1.0" standalone="no"?>
<!DOCTYPE svg PUBLIC "-//W3C//DTD SVG 20010904//EN"
 "http://www.w3.org/TR/2001/REC-SVG-20010904/DTD/svg10.dtd">
<svg version="1.0" xmlns="http://www.w3.org/2000/svg"
 width="300.000000pt" height="300.000000pt" viewBox="0 0 300.000000 300.000000"
 preserveAspectRatio="xMidYMid meet">
<metadata>
Created by potrace 1.14, written by Peter Selinger 2001-2017
</metadata>
<g transform="translate(0.000000,300.000000) scale(0.100000,-0.100000)"
fill="#000000" stroke="none">
<path d="M1310 2980 c-180 -25 -329 -73 -501 -161 -148 -77 -259 -161 -385
-291 -199 -207 -322 -438 -387 -726 -18 -82 -21 -128 -21 -302 0 -174 3 -220
22 -307 142 -655 677 -1127 1341 -1183 338 -29 668 56 954 246 308 205 538
538 623 902 34 145 44 419 21 567 -100 627 -573 1117 -1197 1240 -99 20 -374
28 -470 15z m50 -1165 l0 -625 23 -14 c12 -8 41 -17 65 -21 39 -6 42 -9 42
-40 0 -32 -1 -33 -52 -39 -53 -7 -272 -50 -315 -62 -22 -6 -23 -3 -23 45 0 28
-3 51 -7 51 -3 0 -40 -21 -82 -47 -90 -56 -155 -66 -243 -38 -265 86 -375 384
-240 650 37 75 137 167 224 208 95 45 164 61 266 60 l82 0 0 137 c0 75 -5 151
-11 168 -11 31 -39 47 -99 54 -20 2 -26 9 -28 36 -2 17 1 32 7 32 16 0 294 49
331 59 19 5 41 9 48 10 9 1 12 -130 12 -624z m560 75 l0 -69 87 55 c108 67
145 78 219 65 191 -36 304 -181 304 -391 0 -225 -146 -419 -384 -511 -66 -25
-91 -30 -136 -26 -30 2 -63 8 -72 12 -17 7 -18 -4 -18 -146 0 -85 3 -164 6
-177 8 -29 45 -48 112 -57 52 -7 53 -8 50 -39 l-3 -31 -277 -3 -278 -2 0 34
c0 34 2 35 46 42 90 13 84 -26 84 569 0 380 -3 531 -12 550 -8 18 -24 29 -55
36 -40 11 -43 14 -43 45 0 30 3 34 28 35 15 0 90 18 167 38 77 21 148 39 158
40 15 1 17 -8 17 -69z"/>
<path d="M905 1843 c-50 -26 -82 -62 -112 -126 -27 -59 -28 -69 -28 -202 0
-150 7 -178 62 -258 54 -78 160 -112 241 -78 l32 13 0 281 c0 269 -1 281 -22
315 -21 35 -85 72 -123 71 -11 0 -33 -7 -50 -16z"/>
<path d="M1963 1769 l-43 -21 0 -280 c0 -316 -7 -289 85 -333 61 -30 100 -31
142 -5 76 46 117 159 116 325 0 90 -4 121 -23 169 -54 140 -167 199 -277 145z"/>
</g>
</svg>
